<?xml version="1.0" encoding="utf-8"?>
<!-- Generator: Adobe Illustrator 27.3.1, SVG Export Plug-In . SVG Version: 6.00 Build 0)  -->
<svg version="1.1" id="Layer_1" xmlns="http://www.w3.org/2000/svg" xmlns:xlink="http://www.w3.org/1999/xlink" x="0px" y="0px"
	 viewBox="0 0 982 308.5" style="enable-background:new 0 0 982 308.5;" xml:space="preserve">
<style type="text/css">
	.st0{fill:#FFFFFF;}
	.st1{fill:url(#path68_00000166637529736562838500000008901324083670139796_);}
	.st2{fill:url(#path90_00000100377365055567062990000012077892680000477885_);}
</style>
<g>
	<g id="g14">
		<g id="g20">
			<path id="path22" class="st0" d="M93.6,53h97.8c0.3,0.1,0.4,0.2,0.4,0.4v21.1c0,0.3-0.1,0.4-0.4,0.4h-89.6
				c-5,0.6-7.5,3.1-7.5,7.2c0,2.8,1.5,4.9,4.6,6.4c0.9,0.4,2,0.6,3.3,0.6h60.9c8.6,0,16.1,3.4,22.8,10.2c4,4.6,6,9.6,6,14.9v6.4
				c0,9-5.3,16.3-15.8,21.9c-4.4,2-8.9,2.9-13.5,2.9H65.3c-0.3,0-0.4-0.1-0.4-0.4v-21.1c0.1-0.2,0.2-0.3,0.4-0.3h89.1
				c3.6,0,6.1-1.6,7.5-4.8c0.2-1.4,0.4-2.2,0.4-2.4c0-2.9-1.5-5-4.5-6.5c-0.9-0.4-2-0.6-3.4-0.6h-60c-9.9,0-18.2-3.9-24.8-11.6
				c-3.2-4.2-4.7-8.6-4.7-13.3V78c0-8.4,4.7-15.4,14.1-20.9C84.2,54.7,89.2,53.3,93.6,53L93.6,53L93.6,53z"/>
		</g>
		<g id="g24">
			<path id="path26" class="st0" d="M276.7,86.4l-11,18.6h22.2C280.8,93,277.1,86.8,276.7,86.4L276.7,86.4L276.7,86.4z M262,53h29.4
				c0.6,0.5,6.6,10.6,18.2,30.3c23.3,39.6,35.5,60.3,36.5,62.1v0.2h-34c-0.6-0.6-4.4-6.8-11.2-18.6h-48.2
				c-6.5,11.3-10.1,17.5-11,18.6h-34.1v-0.4C242.5,85.7,260.6,55,262,53L262,53L262,53z"/>
		</g>
		<g id="g28">
			<path id="path30" class="st0" d="M362.1,53h126.2c0.3,0.1,0.4,0.2,0.4,0.4v21.1c0,0.3-0.2,0.4-0.4,0.4h-97.1v14.2H463
				c0.3,0.1,0.4,0.2,0.4,0.4v19.2c0,0.3-0.1,0.4-0.4,0.4h-71.8v35.8c0,0.3-0.1,0.4-0.4,0.4h-28.7c-0.3,0-0.4-0.1-0.4-0.4V53.4
				C361.8,53.1,361.9,53,362.1,53L362.1,53L362.1,53z"/>
		</g>
		<g id="g32">
			<path id="path34" class="st0" d="M647.6,53h126.2c0.3,0.1,0.4,0.2,0.4,0.4v21.1c0,0.3-0.1,0.4-0.4,0.4h-48.2V145
				c0,0.3-0.1,0.4-0.4,0.4h-28.8c-0.3,0-0.4-0.1-0.4-0.4V75h-48.4c-0.3,0-0.4-0.1-0.4-0.4V53.4C647.2,53.2,647.4,53,647.6,53
				L647.6,53L647.6,53z"/>
		</g>
		<g id="g36">
			<path id="path38" class="st0" d="M790.3,53h29.1l34.1,36.8c22-24,33.3-36.3,34-36.8h29.1c0.3,0.1,0.4,0.2,0.4,0.4
				c-2.6,2.6-18.9,20.3-48.8,52.9V145c0,0.3-0.1,0.4-0.4,0.4H839c-0.3,0-0.4-0.1-0.4-0.4v-38.7l-48.8-53.1L790.3,53L790.3,53z"/>
		</g>
		<g id="g40">
			<path id="path42" class="st0" d="M353.3,163.1h97.8c0.3,0.1,0.4,0.2,0.4,0.4v21.1c0,0.3-0.2,0.4-0.4,0.4h-89.6
				c-5,0.6-7.5,3-7.5,7.2c0,2.8,1.5,4.9,4.6,6.4c0.9,0.4,2,0.6,3.3,0.6h60.9c8.6,0,16.2,3.4,22.8,10.2c4,4.6,6,9.6,6,14.9v6.4
				c0,9-5.3,16.3-15.8,21.9c-4.4,2-8.8,2.9-13.5,2.9H325c-0.3,0-0.4-0.1-0.4-0.4V234c0.1-0.2,0.2-0.3,0.4-0.3h89.1
				c3.6,0,6.1-1.6,7.5-4.8c0.2-1.4,0.3-2.2,0.3-2.4c0-2.9-1.5-5-4.5-6.5c-0.9-0.4-2-0.6-3.4-0.6h-60c-9.9,0-18.2-3.9-24.8-11.5
				c-3.2-4.2-4.7-8.6-4.7-13.3v-6.4c0-8.5,4.7-15.4,14-21C344,164.7,348.9,163.3,353.3,163.1L353.3,163.1L353.3,163.1z"/>
		</g>
		<g id="g44">
			<path id="path46" class="st0" d="M467.7,163.1h126.2c0.3,0.1,0.4,0.2,0.4,0.4v21.1c0,0.3-0.1,0.4-0.4,0.4h-48.2v70.1
				c0,0.3-0.2,0.4-0.4,0.4h-28.8c-0.3,0-0.4-0.1-0.4-0.4V185h-48.4c-0.3,0-0.4-0.1-0.4-0.4v-21.1
				C467.4,163.2,467.5,163.1,467.7,163.1L467.7,163.1L467.7,163.1z"/>
		</g>
	</g>
	<g id="g48">
		<g id="g50">
			<g id="g56">
				<g id="g58">
					
						<linearGradient id="path68_00000024689890379286393590000014688293187507443120_" gradientUnits="userSpaceOnUse" x1="-1108.12" y1="545.2858" x2="-1106.9498" y2="545.2858" gradientTransform="matrix(108.54 0 0 108.54 120883.4375 -58976.0195)">
						<stop  offset="0" style="stop-color:#FFD543"/>
						<stop  offset="1" style="stop-color:#F79D31"/>
						<stop  offset="1" style="stop-color:#FDC92E"/>
					</linearGradient>
					<path id="path68" style="fill:url(#path68_00000024689890379286393590000014688293187507443120_);" d="M610.5,163.1
						c-0.2,0-0.4,0.1-0.4,0.4l0,0v91.6c0,0.3,0.1,0.4,0.4,0.4h126.2c0.3,0,0.4-0.1,0.4-0.4l0,0V234c0-0.2-0.1-0.3-0.4-0.3h-97.1
						v-14.3h71.8c0.3,0,0.4-0.1,0.4-0.4l0,0v-19.2c0-0.2-0.2-0.4-0.4-0.4h-71.8V185h38.1c0.3,0,0.4-0.1,0.4-0.4l0,0v-21.1
						c0-0.2-0.1-0.4-0.4-0.4H610.5L610.5,163.1z"/>
				</g>
			</g>
		</g>
	</g>
	<g id="g70">
		<g id="g72">
			<g id="g78">
				<g id="g80">
					
						<linearGradient id="path90_00000098200986333031376370000012324977681644366996_" gradientUnits="userSpaceOnUse" x1="-1108.26" y1="545.1374" x2="-1107.0898" y2="545.1374" gradientTransform="matrix(108.54 0 0 108.54 120793.2188 -59070.0117)">
						<stop  offset="0" style="stop-color:#FFD543"/>
						<stop  offset="1" style="stop-color:#F79D31"/>
						<stop  offset="1" style="stop-color:#FDC92E"/>
					</linearGradient>
					<path id="path90" style="fill:url(#path90_00000098200986333031376370000012324977681644366996_);" d="M504.9,53
						c-0.2,0-0.4,0.2-0.4,0.4l0,0V145c0,0.3,0.2,0.4,0.4,0.4h126.2c0.3,0,0.4-0.1,0.4-0.4l0,0v-21c0-0.2-0.1-0.3-0.4-0.3H534v-14.3
						h71.8c0.3,0,0.4-0.1,0.4-0.4l0,0V89.7c0-0.2-0.2-0.4-0.4-0.4H534V75h38.1c0.3,0,0.4-0.1,0.4-0.4l0,0V53.5
						c0-0.2-0.1-0.4-0.4-0.4L504.9,53L504.9,53z"/>
				</g>
			</g>
		</g>
	</g>
	<g id="g100">
		<path id="path102" class="st0" d="M782.3,185v23.1h56.1c6,0,9.8-2.6,11.4-7.8c0.2-1.2,0.3-2.4,0.3-3.5c0-5.6-2.3-9.3-7-11.1
			c-1.4-0.4-2.9-0.6-4.4-0.6L782.3,185L782.3,185z M753.2,163.1h97.2c10.1,0,18.5,4.1,25.3,12.4c2.8,4.4,4.1,8.5,4.1,12.4V205
			c0,8.3-4.5,15.4-13.5,21.1c-5.1,2.6-10.2,4-15.2,4h-68.9v25c0,0.3-0.1,0.4-0.4,0.4h-28.7c-0.3,0-0.4-0.1-0.4-0.4v-91.6
			C752.8,163.2,753,163.1,753.2,163.1L753.2,163.1L753.2,163.1z"/>
	</g>
</g>
</svg>
